<svg xmlns="http://www.w3.org/2000/svg" xmlns:xlink="http://www.w3.org/1999/xlink" width="88" height="88" viewBox="0 0 88 88">
  <defs>
    <clipPath id="clip-epost">
      <rect width="88" height="88"/>
    </clipPath>
  </defs>
  <g id="epost" clip-path="url(#clip-epost)">
    <g id="Gmail_black">
      <path id="Shape" d="M44,88A44.012,44.012,0,0,1,26.874,3.458,44.011,44.011,0,0,1,61.127,84.542,43.723,43.723,0,0,1,44,88ZM60.448,35.711V60.922H63.2a2.729,2.729,0,0,0,2.746-2.706V30.849a2.71,2.71,0,0,0-.47-2.171,2.77,2.77,0,0,0-2.24-1.158,2.673,2.673,0,0,0-1.6.531l-17.653,12.9L26.438,28.207a2.846,2.846,0,0,0-3.922.587,2.555,2.555,0,0,0-.49,1.241,2.582,2.582,0,0,0-.02.328V58.176a2.716,2.716,0,0,0,2.746,2.746H27.5V35.771L43.935,47.7l16.51-11.989Z" fill="#343434"/>
    </g>
  </g>
</svg>
