<svg xmlns="http://www.w3.org/2000/svg" xmlns:xlink="http://www.w3.org/1999/xlink" width="88" height="88" viewBox="0 0 88 88">
  <defs>
    <clipPath id="clip-linkedin">
      <rect width="88" height="88"/>
    </clipPath>
  </defs>
  <g id="linkedin" clip-path="url(#clip-linkedin)">
    <g id="LinkedIN_black">
      <path id="Combined-Shape" d="M44,88A44.012,44.012,0,0,1,26.874,3.458,44.011,44.011,0,0,1,61.127,84.542,43.723,43.723,0,0,1,44,88Zm8.031-44.4c2.3,0,5.052,1.175,5.052,6.773V66.4h9.971V49.225c0-4.406-1.1-7.836-3.28-10.194a10.8,10.8,0,0,0-8.2-3.292,10.3,10.3,0,0,0-5.983,1.709,11.175,11.175,0,0,0-3.005,3.24V36.444H36.614c.131,2.78,0,29.688,0,29.959h9.973V49.672a6.6,6.6,0,0,1,.328-2.43,6.209,6.209,0,0,1,1.8-2.491A5.129,5.129,0,0,1,52.031,43.6ZM21.123,36.442V66.4h9.971V36.442ZM26.174,22c-3.322,0-5.641,2.128-5.641,5.176a5.177,5.177,0,0,0,5.513,5.178h.064a5.814,5.814,0,0,0,4.124-1.51,5.014,5.014,0,0,0,1.517-3.667C31.683,24.08,29.442,22,26.174,22Z" transform="translate(0 0)" fill="#343434"/>
    </g>
  </g>
</svg>
